<svg width="59" height="61" viewBox="0 0 59 61" fill="none" xmlns="http://www.w3.org/2000/svg">
<path d="M24.5431 3.34059C20.0206 5.94657 15.8289 8.34573 4.41225 14.8952L0.0689413 17.377L0.0275765 30.6414L0 43.9057L1.13064 44.5813C1.7649 44.9536 3.79177 46.1256 5.65319 47.1873C7.51461 48.2628 12.4784 51.1169 16.6838 53.5299C20.8892 55.9566 25.4945 58.604 26.9147 59.4175L29.5069 60.8928L30.5686 60.2861C31.9474 59.514 43.2262 53.0197 44.9498 52.027C47.9418 50.2896 56.8215 45.2018 57.8694 44.6227L59 43.9884V30.6827V17.377L56.9042 16.1913C54.4912 14.8262 42.978 8.23542 34.9946 3.64393C31.975 1.90661 29.4931 0.486416 29.4793 0.500206C29.4517 0.500206 27.2318 1.78251 24.5431 3.34059ZM33.5055 4.59532C35.5875 5.7949 38.814 7.65631 40.6754 8.71801C42.5368 9.77971 46.4803 12.0548 49.4309 13.7507C52.3954 15.4605 55.4151 17.184 56.1458 17.5977L57.4833 18.3422L57.4557 30.6827L57.4281 43.0232L53.0159 45.5465C50.5892 46.9391 47.3903 48.7729 45.9149 49.6278C37.6695 54.3985 29.8378 58.8659 29.631 58.9073C29.3828 58.9763 29.0795 58.8108 24.9568 56.4392C23.702 55.7222 21.0133 54.1641 18.9589 52.9921C15.3326 50.9101 6.56322 45.8774 3.24024 43.9608L1.58565 43.0094V30.6827V18.356L4.13648 16.8807C7.6387 14.8676 15.8151 10.1658 23.1643 5.94657C26.5424 4.01621 29.3966 2.41677 29.5069 2.41677C29.631 2.41677 31.4235 3.39574 33.5055 4.59532Z" fill="#0533FA"/>
<path d="M35.3256 11.3791C34.8016 11.6963 34.8843 11.5308 33.1332 16.0672C30.2791 23.4439 29.5069 25.457 29.5069 25.5121C29.5069 25.5535 29.7413 25.5811 30.0447 25.5811H30.5686L30.996 24.5056C31.2167 23.9265 32.3611 20.9896 33.5055 17.9975C34.6637 15.0055 35.6841 12.4684 35.7806 12.3581C35.8771 12.2616 36.1253 12.1651 36.3321 12.1651C36.7458 12.1651 36.9526 12.3995 36.9526 12.8407C36.9526 13.0062 36.3873 14.5918 35.6978 16.3567C35.0084 18.1354 34.2777 20.052 34.057 20.6173C33.8364 21.1826 33.3538 22.4511 32.9678 23.4439C32.5817 24.4228 32.2646 25.3191 32.2646 25.4156C32.2646 25.5397 32.43 25.5811 32.7885 25.5535L33.2987 25.5121L35.6703 19.3763C36.9802 15.9982 38.0556 13.0613 38.0556 12.8545C38.0694 11.5032 36.5114 10.6621 35.3256 11.3791Z" fill="#0533FA"/>
<path d="M19.1105 18.2043C18.8348 18.3974 17.125 19.7073 15.3326 21.1274C13.5401 22.5476 11.5408 24.1057 10.9203 24.6021L9.7621 25.5121L10.4653 25.5535C10.8514 25.5811 11.3064 25.5259 11.4718 25.4294C11.6373 25.3329 13.5263 23.8851 15.6773 22.1891C17.8144 20.507 19.6897 19.0454 19.8413 18.9765C20.1722 18.7972 20.7376 18.9765 20.8617 19.2936C21.0271 19.721 20.7238 20.0795 18.9589 21.4584C16.477 23.3887 14.0227 25.3329 13.871 25.4707C13.7883 25.5259 14.1054 25.5811 14.5742 25.5811H15.4015L18.1454 23.4301C21.5649 20.7552 21.9234 20.4105 21.9234 19.6521C21.9234 19.335 21.8268 18.9075 21.7165 18.6869C21.2753 17.832 20.0068 17.5976 19.1105 18.2043Z" fill="#0533FA"/>
<path d="M37.7523 18.1631C37.5592 18.3424 37.3248 18.6181 37.2421 18.7836C36.9939 19.28 37.0629 20.121 37.38 20.5347C37.5317 20.7277 38.9932 21.9411 40.634 23.2372L43.5985 25.5812H44.3431C44.7567 25.5812 45.0876 25.526 45.0876 25.4709C45.0876 25.402 44.8808 25.2089 44.6464 25.0297C44.1638 24.6988 41.9715 22.9752 39.6413 21.1276C38.8829 20.5209 38.2211 19.928 38.1797 19.8039C38.0556 19.4868 38.2762 19.0042 38.5934 18.8939C38.745 18.8525 39.0346 18.9077 39.2552 19.0318C39.462 19.1421 41.4475 20.6726 43.6399 22.4099L47.6385 25.5812H48.4658C49.4171 25.5812 49.4861 25.6915 47.5695 24.1886C46.8525 23.6095 44.7705 21.9825 42.9642 20.5485C39.6688 17.9563 39.6551 17.9425 38.8967 17.8873C38.2486 17.846 38.0694 17.8873 37.7523 18.1631Z" fill="#0533FA"/>
<path d="M4.96376 28.8488C4.96376 28.9178 5.30847 29.5796 5.72212 30.3242C6.37016 31.4962 6.48047 31.7995 6.48047 32.4338V33.1646H7.032H7.58353V32.5027C7.58353 31.9788 7.7352 31.5513 8.34189 30.3793C8.75553 29.5796 9.10024 28.8764 9.10024 28.8212C9.10024 28.7799 8.86584 28.7523 8.59007 28.7799C8.13506 28.8212 8.05233 28.8902 7.61111 29.6761C7.36292 30.1587 7.10094 30.5448 7.05958 30.5448C7.00442 30.5448 6.74245 30.1449 6.48047 29.6485C6.02546 28.7937 5.9703 28.7523 5.48771 28.7523C5.19816 28.7523 4.96376 28.7937 4.96376 28.8488Z" fill="#0533FA"/>
<path d="M10.617 29.0557C8.76934 29.9933 9.03132 32.4476 11.0306 33.0405C11.9406 33.3163 12.7955 33.0957 13.4711 32.4062C14.0365 31.8409 14.064 31.7858 14.064 30.9723C14.064 30.2001 14.0227 30.0898 13.5677 29.5797C12.7817 28.711 11.6787 28.518 10.617 29.0557ZM12.6163 30.0622C13.3746 30.8068 12.8369 32.1994 11.8028 32.1994C11.072 32.1994 10.548 31.6893 10.548 30.9585C10.548 30.4897 10.6308 30.3104 10.9341 30.0485C11.4581 29.6072 12.175 29.6072 12.6163 30.0622Z" fill="#0533FA"/>
<path d="M14.6156 30.1313C14.6156 31.91 14.8362 32.4891 15.6359 32.889C16.67 33.3853 17.7731 33.1371 18.3936 32.2961C18.6418 31.9514 18.6831 31.7032 18.6831 30.3657V28.8214L18.173 28.78L17.649 28.7387V30.0486C17.649 30.7656 17.5939 31.5101 17.5111 31.7032C17.2767 32.3512 16.1737 32.3512 15.8841 31.717C15.7876 31.5239 15.7186 30.7793 15.7186 30.0624V28.7525H15.1671H14.6156V30.1313Z" fill="#0533FA"/>
<path d="M19.5793 30.9584V33.1646H20.0619H20.5307L20.5721 31.8133L20.6135 30.4758L21.6338 31.8133C22.5576 33.0542 22.6817 33.1646 23.1091 33.1646H23.5779V30.9584V28.7523H23.0954H22.6266L22.5852 30.0898L22.5438 31.441L21.5235 30.0898C20.5997 28.8626 20.4756 28.7523 20.0481 28.7523H19.5793V30.9584Z" fill="#0533FA"/>
<path d="M25.5083 29.0557C23.7296 29.9657 23.8675 32.2821 25.7565 33.0267C26.2942 33.2335 27.3697 33.137 27.9764 32.8199C28.3763 32.613 28.4038 32.5579 28.4038 31.7857V30.9585H27.9212C27.4524 30.9585 27.4387 30.9722 27.4387 31.4962C27.4387 32.0615 27.287 32.1994 26.6665 32.1994C26.2529 32.1994 25.7841 31.965 25.5497 31.6617C25.329 31.3721 25.329 30.5448 25.5497 30.2553C25.9633 29.7175 26.9836 29.5383 27.5214 29.9243C27.7834 30.1036 27.8385 30.0898 28.1419 29.7727C28.4728 29.428 28.4728 29.4142 28.197 29.2625C27.2318 28.6834 26.377 28.6282 25.5083 29.0557Z" fill="#0533FA"/>
<path d="M31.9888 28.8765C30.996 29.1799 30.4445 29.9244 30.4445 30.9585C30.4445 32.8475 32.6368 33.8127 34.1949 32.6131L34.5396 32.3512L34.2363 32.0478C33.9467 31.7583 33.9191 31.7583 33.4641 31.9789C32.8988 32.2409 32.623 32.2546 32.2232 32.034C31.7544 31.7858 31.5889 31.4963 31.5751 30.9172C31.5751 29.8968 32.5817 29.4005 33.5331 29.952C33.9329 30.2002 33.9329 30.2002 34.1949 29.8555C34.512 29.4418 34.4569 29.3453 33.7261 29.0144C33.1332 28.7524 32.5679 28.6973 31.9888 28.8765Z" fill="#0533FA"/>
<path d="M36.3045 28.904C35.5875 29.1108 34.9119 29.883 34.8154 30.6C34.5672 32.2132 36.1804 33.4955 37.8488 33.0405C38.8002 32.7785 39.5723 31.8271 39.5723 30.9309C39.5585 30.3518 39.0621 29.4969 38.5658 29.1798C38.0004 28.8351 36.9388 28.6972 36.3045 28.904ZM37.8074 29.8692C37.9591 29.9519 38.1659 30.2277 38.2762 30.4897C38.8002 31.7306 37.3386 32.7509 36.3045 31.8685C36.0012 31.6065 35.9184 31.4273 35.9184 30.9585C35.9184 30.4897 36.0012 30.3104 36.3045 30.0484C36.7181 29.6899 37.3386 29.621 37.8074 29.8692Z" fill="#0533FA"/>
<path d="M40.1238 30.9584V33.1646H41.3372C42.6885 33.1646 43.4606 32.9026 43.957 32.2683C44.8394 31.1515 44.2741 29.3176 42.9091 28.9178C42.6057 28.8212 41.8612 28.7523 41.2407 28.7523H40.1238V30.9584ZM42.523 29.7726C43.0745 30.007 43.3641 30.6137 43.24 31.3031C43.1159 31.9098 42.6471 32.2407 41.875 32.2545L41.2958 32.2683L41.2545 31.1101C41.2269 30.4758 41.2407 29.8692 41.2821 29.7588C41.3786 29.5244 41.9439 29.5244 42.523 29.7726Z" fill="#0533FA"/>
<path d="M45.0876 30.9584V33.1646H46.8112H48.5347V32.7509V32.3373H47.3627H46.1907V31.8547V31.3721H47.2248H48.2589V30.9584V30.5448H47.2248H46.1907V30.0622V29.5796H47.28C48.3279 29.5796 48.3693 29.5658 48.4244 29.2349C48.4658 29.0556 48.4658 28.8626 48.4244 28.8212C48.383 28.7799 47.6109 28.7523 46.7147 28.7523H45.0876V30.9584Z" fill="#0533FA"/>
<path d="M49.2241 30.9446V33.1646H49.7756H50.3272V32.5441C50.3272 31.9236 50.3272 31.9236 50.8098 31.9236C51.251 31.9236 51.3199 31.9788 51.5957 32.5441C51.8852 33.137 51.9266 33.1646 52.4919 33.1646C52.8228 33.1646 53.0848 33.1232 53.0848 33.0542C53.0848 32.9991 52.9056 32.682 52.6712 32.351L52.2713 31.7306L52.6022 31.4272C53.0159 31.0549 53.1676 30.2552 52.9469 29.7175C52.6574 29.0143 52.2024 28.835 50.6443 28.7799L49.2241 28.7247V30.9446ZM51.6233 29.7175C51.8852 29.814 51.9818 29.9519 51.9818 30.2276C51.9818 30.8481 51.7887 31.0136 51.0579 31.0136L50.3961 31.0274L50.3547 30.4896C50.3272 30.2001 50.341 29.8829 50.3823 29.7726C50.465 29.552 51.1131 29.5244 51.6233 29.7175Z" fill="#0533FA"/>
<path d="M9.87242 35.7569C9.80348 35.881 18.0627 42.527 19.2071 43.2853C20.0757 43.8644 21.3994 43.4784 21.7855 42.5408C22.0061 42.0168 21.882 41.093 21.5511 40.7207C21.4132 40.5691 20.0068 39.4108 18.4212 38.1561C15.829 36.1017 15.4705 35.8535 14.8914 35.7845C13.609 35.6191 13.678 35.7707 15.5256 37.2323C19.9792 40.7483 20.6824 41.3274 20.8065 41.548C20.9996 41.9203 20.6824 42.458 20.255 42.5132C19.9103 42.5546 18.559 41.5342 12.8921 37.0117C11.6097 35.9776 11.2926 35.7845 10.8652 35.7845C10.5894 35.7845 10.2723 35.7432 10.162 35.7018C10.0517 35.6604 9.91379 35.688 9.87242 35.7569Z" fill="#0533FA"/>
<path d="M25.3842 36.0876C24.5018 38.3765 21.5097 46.0841 21.1374 47.0493C20.5583 48.566 20.5859 49.09 21.3029 49.807C21.7028 50.2068 21.8544 50.262 22.4473 50.262C23.3573 50.262 23.8399 49.8621 24.3225 48.7177C24.9568 47.1734 29.2312 36.0325 29.2312 35.9084C29.2312 35.8394 28.9967 35.7843 28.7072 35.7843H28.1695L27.6041 37.2596C27.287 38.0869 26.6665 39.7139 26.2253 40.8859C25.7703 42.0579 24.9982 44.0435 24.5156 45.2982C24.0192 46.5529 23.509 47.8766 23.3711 48.2351C23.2333 48.6074 22.9713 49.0072 22.792 49.1175C22.5025 49.3106 22.4473 49.3106 22.1302 49.1037C21.5649 48.7315 21.3856 49.3519 24.8189 40.4723C25.7427 38.0869 26.5286 36.0463 26.57 35.9497C26.6252 35.8394 26.4735 35.7843 26.0736 35.7843C25.6048 35.7843 25.4807 35.8394 25.3842 36.0876Z" fill="#0533FA"/>
<path d="M41.7647 37.2459C40.7444 38.0456 39.4483 39.0659 38.8692 39.5072C37.449 40.6102 37.0905 41.0514 37.0905 41.7271C37.0905 42.8163 37.7937 43.5471 38.8278 43.5471C39.1587 43.5471 39.5724 43.4368 39.8068 43.2851C40.0274 43.1473 42.2473 41.4099 44.743 39.4382L49.2793 35.8533L48.4934 35.8119C47.7074 35.7705 47.6936 35.7705 46.563 36.6668C39.9171 41.9063 39.0622 42.5406 38.7864 42.5406C38.359 42.5406 37.9867 41.9615 38.1797 41.5892C38.2625 41.4375 39.6827 40.2517 41.3373 38.9418C42.9781 37.6457 44.5499 36.391 44.8119 36.1842L45.2945 35.7843H44.4534H43.6123L41.7647 37.2459Z" fill="#0533FA"/>
</svg>
