<svg width="24" height="25" viewBox="0 0 24 25" fill="none" xmlns="http://www.w3.org/2000/svg">
<g clip-path="url(#clip0_39915_457)">
<path fill-rule="evenodd" clip-rule="evenodd" d="M23.45 6.448C23.616 5.902 23.45 5.5 22.655 5.5H20.03C19.362 5.5 19.054 5.847 18.887 6.23C18.887 6.23 17.552 9.426 15.661 11.502C15.049 12.104 14.771 12.295 14.437 12.295C14.27 12.295 14.019 12.104 14.019 11.557V6.448C14.019 5.792 13.835 5.5 13.279 5.5H9.151C8.734 5.5 8.483 5.804 8.483 6.093C8.483 6.714 9.429 6.858 9.526 8.606V12.404C9.526 13.237 9.373 13.388 9.039 13.388C8.149 13.388 5.984 10.177 4.699 6.503C4.45 5.788 4.198 5.5 3.527 5.5H0.9C0.15 5.5 0 5.847 0 6.23C0 6.912 0.89 10.3 4.145 14.781C6.315 17.841 9.37 19.5 12.153 19.5C13.822 19.5 14.028 19.132 14.028 18.497V16.184C14.028 15.447 14.186 15.3 14.715 15.3C15.105 15.3 15.772 15.492 17.33 16.967C19.11 18.716 19.403 19.5 20.405 19.5H23.03C23.78 19.5 24.156 19.132 23.94 18.404C23.702 17.68 22.852 16.629 21.725 15.382C21.113 14.672 20.195 13.907 19.916 13.524C19.527 13.033 19.638 12.814 19.916 12.377C19.916 12.377 23.116 7.951 23.449 6.448H23.45Z" fill="white"/>
</g>
<defs>
<clipPath id="clip0_39915_457">
<rect width="24" height="24" fill="white" transform="translate(0 0.5)"/>
</clipPath>
</defs>
</svg>
